<mxfile host="app.diagrams.net" modified="2024-07-21T07:42:35.419Z" agent="Mozilla/5.0 (Windows NT 10.0; Win64; x64) AppleWebKit/537.36 (KHTML, like Gecko) Chrome/128.0.0.0 Safari/537.36 Edg/128.0.0.0" etag="dJ30_kL3K-DwWanxCKpP" version="24.6.5" type="github">
  <diagram name="第 1 页" id="C_N0WSI2K9GvynvuYv5X">
    <mxGraphModel dx="956" dy="577" grid="0" gridSize="10" guides="1" tooltips="1" connect="1" arrows="1" fold="1" page="0" pageScale="1" pageWidth="827" pageHeight="1169" math="0" shadow="0">
      <root>
        <mxCell id="0" />
        <mxCell id="1" parent="0" />
        <mxCell id="PEHEmGr5-3DT5fpXpjye-1" value="Pod" style="rounded=1;whiteSpace=wrap;html=1;align=center;verticalAlign=bottom;fillColor=#fff2cc;strokeColor=#d6b656;" vertex="1" parent="1">
          <mxGeometry x="40" y="180" width="420" height="130" as="geometry" />
        </mxCell>
        <mxCell id="PEHEmGr5-3DT5fpXpjye-2" value="API服务器" style="rounded=1;whiteSpace=wrap;html=1;fillColor=#ffe6cc;strokeColor=#d79b00;" vertex="1" parent="1">
          <mxGeometry x="580" y="215" width="120" height="60" as="geometry" />
        </mxCell>
        <mxCell id="PEHEmGr5-3DT5fpXpjye-5" style="edgeStyle=orthogonalEdgeStyle;rounded=0;orthogonalLoop=1;jettySize=auto;html=1;entryX=0;entryY=0.5;entryDx=0;entryDy=0;" edge="1" parent="1" source="PEHEmGr5-3DT5fpXpjye-3" target="PEHEmGr5-3DT5fpXpjye-4">
          <mxGeometry relative="1" as="geometry" />
        </mxCell>
        <mxCell id="PEHEmGr5-3DT5fpXpjye-3" value="应用容器" style="rounded=1;whiteSpace=wrap;html=1;fillColor=#ffe6cc;strokeColor=#d79b00;" vertex="1" parent="1">
          <mxGeometry x="70" y="215" width="120" height="60" as="geometry" />
        </mxCell>
        <mxCell id="PEHEmGr5-3DT5fpXpjye-8" style="edgeStyle=orthogonalEdgeStyle;rounded=0;orthogonalLoop=1;jettySize=auto;html=1;" edge="1" parent="1" source="PEHEmGr5-3DT5fpXpjye-4" target="PEHEmGr5-3DT5fpXpjye-2">
          <mxGeometry relative="1" as="geometry" />
        </mxCell>
        <mxCell id="PEHEmGr5-3DT5fpXpjye-4" value="ambassador容器" style="rounded=1;whiteSpace=wrap;html=1;fillColor=#ffe6cc;strokeColor=#d79b00;" vertex="1" parent="1">
          <mxGeometry x="280" y="215" width="120" height="60" as="geometry" />
        </mxCell>
        <mxCell id="PEHEmGr5-3DT5fpXpjye-7" value="HTTP" style="text;html=1;align=center;verticalAlign=middle;resizable=0;points=[];autosize=1;strokeColor=none;fillColor=none;" vertex="1" parent="1">
          <mxGeometry x="210" y="215" width="50" height="30" as="geometry" />
        </mxCell>
        <mxCell id="PEHEmGr5-3DT5fpXpjye-9" value="HTTPS" style="text;html=1;align=center;verticalAlign=middle;resizable=0;points=[];autosize=1;strokeColor=none;fillColor=none;" vertex="1" parent="1">
          <mxGeometry x="460" y="215" width="60" height="30" as="geometry" />
        </mxCell>
      </root>
    </mxGraphModel>
  </diagram>
</mxfile>
